<svg xmlns="http://www.w3.org/2000/svg" width="1200" height="630" viewBox="0 0 1200 630" role="img" aria-labelledby="title desc"><title id="title">Neverwinter Character Builder Web thumbnail</title><desc id="desc">A dark fantasy stat calculator interface with ratings, buffs, and final combat results.</desc><defs><linearGradient id="bg" x1="0" y1="0" x2="1" y2="1"><stop offset="0" stop-color="#080d18"/><stop offset="1" stop-color="#202b43"/></linearGradient><filter id="s"><feDropShadow dx="0" dy="18" stdDeviation="20" flood-opacity=".35"/></filter></defs><rect width="1200" height="630" rx="28" fill="url(#bg)"/><circle cx="1080" cy="70" r="240" fill="#8b5cf6" opacity=".12"/><g transform="translate(64 70)"><text fill="#a78bfa" font-family="Arial" font-size="15" font-weight="800" letter-spacing="4">NEVERWINTER BUILD CALCULATOR</text><text y="82" fill="#fff" font-family="Georgia" font-size="60" font-weight="700">Character Builder Web</text><text y="132" fill="#bac6d8" font-family="Arial" font-size="22">Workbook formulas, clearer web interface.</text><g transform="translate(0 190)"><rect width="465" height="260" rx="20" fill="#111827" stroke="#394865"/><text x="24" y="38" fill="#a78bfa" font-family="Arial" font-size="13" font-weight="800">FINAL RESULTS</text><g font-family="Arial" font-size="16"><text x="24" y="84" fill="#9ca3af">Power</text><text x="430" y="84" text-anchor="end" fill="#fff" font-weight="800">92,450</text><text x="24" y="124" fill="#9ca3af">Critical Strike</text><text x="430" y="124" text-anchor="end" fill="#fbbf24" font-weight="800">88.4%</text><text x="24" y="164" fill="#9ca3af">Combat Advantage</text><text x="430" y="164" text-anchor="end" fill="#fff" font-weight="800">86.9%</text><text x="24" y="204" fill="#9ca3af">Accuracy</text><text x="430" y="204" text-anchor="end" fill="#fff" font-weight="800">82.1%</text></g><rect x="24" y="224" width="417" height="12" rx="6" fill="#29354b"/><rect x="24" y="224" width="355" height="12" rx="6" fill="#8b5cf6"/></g><g transform="translate(0 478)"><rect width="176" height="44" rx="12" fill="#8b5cf6"/><text x="88" y="28" text-anchor="middle" fill="#fff" font-family="Arial" font-size="13" font-weight="900">DPS TEMPLATE</text><rect x="190" width="176" height="44" rx="12" fill="#172033" stroke="#53627c"/><text x="278" y="28" text-anchor="middle" fill="#d7deea" font-family="Arial" font-size="13" font-weight="900">HEAL TEMPLATE</text></g></g><g transform="translate(610 62)" filter="url(#s)"><rect width="520" height="500" rx="24" fill="#f7f1e3"/><text x="28" y="42" fill="#3d2b1f" font-family="Arial" font-size="13" font-weight="900">MANUAL GEAR &amp; BUFF INPUTS</text><g font-family="Arial" font-size="14"><g transform="translate(28 72)"><rect width="464" height="62" rx="12" fill="#fff" stroke="#d8cab1"/><text x="18" y="25" fill="#6b5b4a">Offensive rating</text><text x="440" y="38" text-anchor="end" fill="#2a211a" font-size="22" font-weight="900">18,500</text></g><g transform="translate(28 150)"><rect width="220" height="86" rx="12" fill="#fff" stroke="#d8cab1"/><text x="16" y="26" fill="#6b5b4a">Class toggle</text><text x="16" y="59" fill="#2a211a" font-size="18" font-weight="900">Warlock</text><rect x="244" width="220" height="86" rx="12" fill="#fff" stroke="#d8cab1"/><text x="260" y="26" fill="#6b5b4a">Race toggle</text><text x="260" y="59" fill="#2a211a" font-size="18" font-weight="900">Dragonborn</text></g><g transform="translate(28 252)"><rect width="464" height="150" rx="12" fill="#fff" stroke="#d8cab1"/><text x="18" y="28" fill="#6b5b4a">Active buffs</text><g transform="translate(18 48)"><rect width="116" height="42" rx="10" fill="#ede9fe"/><text x="58" y="26" text-anchor="middle" fill="#5b21b6" font-weight="800">Food</text><rect x="128" width="116" height="42" rx="10" fill="#fef3c7"/><text x="186" y="26" text-anchor="middle" fill="#92400e" font-weight="800">Potion</text><rect x="256" width="170" height="42" rx="10" fill="#dcfce7"/><text x="341" y="26" text-anchor="middle" fill="#166534" font-weight="800">Companion aura</text></g><text x="18" y="124" fill="#7c6b59">Yellow fields recalculate from workbook formulas.</text></g></g></g><text x="1130" y="604" text-anchor="end" fill="#9aa8bd" font-family="Arial" font-size="12" font-weight="800" letter-spacing="3">NISCHHALSUBBA / CHARACTER-BUILDER</text></svg>